<svg xmlns="http://www.w3.org/2000/svg" width="100%" viewBox="0 0 580 320" preserveAspectRatio="xMidYMid meet">
      <rect width="580" height="320" rx="20" fill="#161B22" stroke="#30363D" stroke-width="1.5" />
      <text x="30" y="50" font-family="Segoe UI, Arial, sans-serif" font-size="20" font-weight="bold" fill="#E6EDF3">Milestones</text>
      
        <text x="30" y="105" font-family="Segoe UI, Arial, sans-serif" font-size="16" fill="#E6EDF3">Novice (50)</text>
        <text x="250" y="105" font-family="Segoe UI, Arial, sans-serif" font-size="16" fill="#3FB950">50 / 50</text>
        <rect x="340" y="93" width="200" height="12" rx="6" fill="#0D1117" />
        <rect x="340" y="93" width="200" height="12" rx="6" fill="#3FB950" />
      
        <text x="30" y="145" font-family="Segoe UI, Arial, sans-serif" font-size="16" fill="#8B949E">Intermediate (150)</text>
        <text x="250" y="145" font-family="Segoe UI, Arial, sans-serif" font-size="16" fill="#58A6FF">95 / 150</text>
        <rect x="340" y="133" width="200" height="12" rx="6" fill="#0D1117" />
        <rect x="340" y="133" width="126.66666666666666" height="12" rx="6" fill="#58A6FF" />
      
        <text x="30" y="185" font-family="Segoe UI, Arial, sans-serif" font-size="16" fill="#8B949E">Advanced (300)</text>
        <text x="250" y="185" font-family="Segoe UI, Arial, sans-serif" font-size="16" fill="#58A6FF">95 / 300</text>
        <rect x="340" y="173" width="200" height="12" rx="6" fill="#0D1117" />
        <rect x="340" y="173" width="63.33333333333333" height="12" rx="6" fill="#58A6FF" />
      
        <text x="30" y="225" font-family="Segoe UI, Arial, sans-serif" font-size="16" fill="#8B949E">Expert (500)</text>
        <text x="250" y="225" font-family="Segoe UI, Arial, sans-serif" font-size="16" fill="#58A6FF">95 / 500</text>
        <rect x="340" y="213" width="200" height="12" rx="6" fill="#0D1117" />
        <rect x="340" y="213" width="38" height="12" rx="6" fill="#58A6FF" />
      
        <text x="30" y="265" font-family="Segoe UI, Arial, sans-serif" font-size="16" fill="#8B949E">Master (1000)</text>
        <text x="250" y="265" font-family="Segoe UI, Arial, sans-serif" font-size="16" fill="#58A6FF">95 / 1000</text>
        <rect x="340" y="253" width="200" height="12" rx="6" fill="#0D1117" />
        <rect x="340" y="253" width="19" height="12" rx="6" fill="#58A6FF" />
      
    </svg>