<svg xmlns="http://www.w3.org/2000/svg" width="100%" viewBox="0 0 580 320" preserveAspectRatio="xMidYMid meet">
      <rect width="580" height="320" rx="20" fill="#161B22" stroke="#30363D" stroke-width="1.5" />
      <text x="30" y="50" font-family="Segoe UI, Arial, sans-serif" font-size="20" font-weight="bold" fill="#E6EDF3">Top Topics</text>
      
        <text x="30" y="105" font-family="Segoe UI, Arial, sans-serif" font-size="16" fill="#BC8CFF">Array</text>
        <text x="250" y="105" font-family="Segoe UI, Arial, sans-serif" font-size="16" font-weight="bold" fill="#E6EDF3">58</text>
        <rect x="310" y="93" width="230" height="12" rx="6" fill="#0D1117" />
        <rect x="310" y="93" width="153.33333333333331" height="12" rx="6" fill="#BC8CFF" />
      
        <text x="30" y="145" font-family="Segoe UI, Arial, sans-serif" font-size="16" fill="#BC8CFF">Math</text>
        <text x="250" y="145" font-family="Segoe UI, Arial, sans-serif" font-size="16" font-weight="bold" fill="#E6EDF3">12</text>
        <rect x="310" y="133" width="230" height="12" rx="6" fill="#0D1117" />
        <rect x="310" y="133" width="31.724137931034484" height="12" rx="6" fill="#BC8CFF" />
      
        <text x="30" y="185" font-family="Segoe UI, Arial, sans-serif" font-size="16" fill="#BC8CFF">String</text>
        <text x="250" y="185" font-family="Segoe UI, Arial, sans-serif" font-size="16" font-weight="bold" fill="#E6EDF3">7</text>
        <rect x="310" y="173" width="230" height="12" rx="6" fill="#0D1117" />
        <rect x="310" y="173" width="18.50574712643678" height="12" rx="6" fill="#BC8CFF" />
      
        <text x="30" y="225" font-family="Segoe UI, Arial, sans-serif" font-size="16" fill="#BC8CFF">BinarySearch</text>
        <text x="250" y="225" font-family="Segoe UI, Arial, sans-serif" font-size="16" font-weight="bold" fill="#E6EDF3">3</text>
        <rect x="310" y="213" width="230" height="12" rx="6" fill="#0D1117" />
        <rect x="310" y="213" width="7.931034482758621" height="12" rx="6" fill="#BC8CFF" />
      
        <text x="30" y="265" font-family="Segoe UI, Arial, sans-serif" font-size="16" fill="#BC8CFF">TwoPointers</text>
        <text x="250" y="265" font-family="Segoe UI, Arial, sans-serif" font-size="16" font-weight="bold" fill="#E6EDF3">3</text>
        <rect x="310" y="253" width="230" height="12" rx="6" fill="#0D1117" />
        <rect x="310" y="253" width="7.931034482758621" height="12" rx="6" fill="#BC8CFF" />
      
        <text x="30" y="305" font-family="Segoe UI, Arial, sans-serif" font-size="16" fill="#BC8CFF">SlidingWindow</text>
        <text x="250" y="305" font-family="Segoe UI, Arial, sans-serif" font-size="16" font-weight="bold" fill="#E6EDF3">2</text>
        <rect x="310" y="293" width="230" height="12" rx="6" fill="#0D1117" />
        <rect x="310" y="293" width="5.287356321839081" height="12" rx="6" fill="#BC8CFF" />
      
        <text x="30" y="345" font-family="Segoe UI, Arial, sans-serif" font-size="16" fill="#BC8CFF">HashTable</text>
        <text x="250" y="345" font-family="Segoe UI, Arial, sans-serif" font-size="16" font-weight="bold" fill="#E6EDF3">1</text>
        <rect x="310" y="333" width="230" height="12" rx="6" fill="#0D1117" />
        <rect x="310" y="333" width="2.6436781609195403" height="12" rx="6" fill="#BC8CFF" />
      
        <text x="30" y="385" font-family="Segoe UI, Arial, sans-serif" font-size="16" fill="#BC8CFF">Sorting</text>
        <text x="250" y="385" font-family="Segoe UI, Arial, sans-serif" font-size="16" font-weight="bold" fill="#E6EDF3">1</text>
        <rect x="310" y="373" width="230" height="12" rx="6" fill="#0D1117" />
        <rect x="310" y="373" width="2.6436781609195403" height="12" rx="6" fill="#BC8CFF" />
      
    </svg>